# xmcd
#
# Track frame offsets:
#	150
#	17637
#	46062
#	64512
#
# Disc length: 1130 seconds
#
# Revision: 1
# Processed by: cddbd v1.5.2PL0 Copyright (c) Steve Scherf et al.
# Submitted via: CDRider 2.1
#
DISCID=25046804
DTITLE=After 7 - Heat of the Moment
DYEAR=1990
DGENRE=R&B
TTITLE0=Heat of the Moment (7" One World Remix)
TTITLE1=Heat of the Moment (12" One World Remix)
TTITLE2=Sayonara
TTITLE3=Heat of the Moment (Album Version)
EXTD=
EXTT0=
EXTT1=
EXTT2=
EXTT3=
PLAYORDER=
